@startuml
scale 350 width
[*] --> plan

state plan {
  [*] --> item1
  [*] --> item2
  item2 --> Configuring : EvConfig
  item1 --> item2 : EvConfig
}

state Configuring {
  [*] --> NewValueSelection
  NewValueSelection --> NewValuePreview : EvNewValue
  NewValuePreview --> NewValueSelection : EvNewValueRejected
  NewValuePreview --> NewValueSelection : EvNewValueSaved

  state NewValuePreview {
     State1 -> State2
  }

}
@enduml